<?xml version="1.0" encoding="UTF-8"?>
<svg width="32px" height="28px" viewBox="0 0 32 28" version="1.1" xmlns="http://www.w3.org/2000/svg" xmlns:xlink="http://www.w3.org/1999/xlink">
    <!-- Generator: Sketch 49.3 (51167) - http://www.bohemiancoding.com/sketch -->
    <title>Combined Shape</title>
    <desc>Created with Sketch.</desc>
    <defs></defs>
    <g id="Global-Features" stroke="none" stroke-width="1" fill="none" fill-rule="evenodd">
        <g id="Artboard" transform="translate(-32.000000, -11542.000000)" fill="#23182D">
            <g id="Global:-log-in" transform="translate(0.000000, 11520.000000)">
                <g id="bg-lightbox_WEBSITE">
                    <g id="careerlark-logo" transform="translate(24.000000, 12.000000)">
                        <path d="M32.9630843,33.3478364 L38.6034345,32.148943 C39.1392224,32.0350577 39.665849,32.3769008 39.781476,32.9208831 C39.8963025,33.4610991 39.5440316,33.993694 39.0192579,34.1052382 L21.3965655,37.851057 C20.8607776,37.9649423 20.334151,37.6230992 20.218524,37.0791169 C20.1036975,36.5389009 20.4559684,36.006306 20.9807421,35.8947618 L24.9551398,35.0499775 C24.9679645,34.9558966 25.0165353,34.854459 25.1199147,34.7489505 C25.5914848,34.2676687 25.9593456,33.7793863 25.9593456,33.7793863 C26.0785932,33.6288763 26.1143675,33.3562083 26.0366758,33.1769964 L24.2544662,29.0033199 C22.8795052,29.3053899 21.0203267,30.8381415 20.2491922,31.0740571 C19.5105797,31.3736769 19.781597,30.6844813 19.781597,30.6844813 L19.2879842,30.9025457 C18.197772,31.3848777 17.95747,31.0719569 18.75137,30.2031994 L19.1976451,29.714917 C19.1976451,29.714917 17.9495202,29.9291312 17.1332162,29.7649704 C16.2392205,30.0939922 8.34322238,34.7535008 8.34322238,34.7535008 C7.92151949,34.8039042 7.66857003,34.1997642 8.94054446,33.2652022 L19.9178284,26.5496573 C20.6846266,25.1299633 29.3293551,18.3899168 29.3253802,18.2348565 C28.6337441,10.1934238 35.2649949,10.3236324 36.7711283,11.1752388 C38.2086039,10.3236324 39.1631716,9.87632326 39.2517463,10.0298429 C39.3403209,10.1833626 37.8147255,11.8038804 37.3670049,12.4325221 C39.8571117,11.7590775 39.8893099,11.5941643 39.9938237,11.7515879 C40.0811922,11.9449565 39.2316038,12.2540103 38.0821292,12.8830019 C37.5917686,13.3957859 36.1156278,13.698556 37.7055959,19.2562242 C37.6055001,28.2693213 28.3916353,29.3830951 28.3916353,29.3830951 L32.573974,32.0782736 L33.9407736,32.1502873 C34.5500552,32.1995093 34.613375,32.2891438 34.0337594,32.4344034 L33.4003491,32.5598939 C33.4003491,32.5598939 33.123091,32.7840163 32.9630843,33.3478364 Z M32.0170574,33.5489206 L32.2375512,32.6005082 C32.2375512,32.6005082 30.3425984,31.012103 27.6251985,29.382745 C26.6419478,29.3435424 27.3650219,29.4453992 24.8969578,29.1342286 C24.978263,29.8258744 26.6040054,32.9326802 26.6040054,32.9326802 C26.6040054,32.9326802 27.1099043,33.5466209 27.8474326,33.7583849 C27.4965556,34.1168087 26.855148,34.0258026 26.855148,34.0258026 L26.1776048,34.3737257 C26.1776048,34.3737257 25.8834547,34.5956821 25.8118701,34.8678739 L32.0170574,33.5489206 Z" id="Combined-Shape"></path>
                    </g>
                </g>
            </g>
        </g>
    </g>
</svg>