<?xml version="1.0" encoding="UTF-8"?>
<svg width="16px" height="16px" viewBox="0 0 16 16" version="1.1" xmlns="http://www.w3.org/2000/svg" xmlns:xlink="http://www.w3.org/1999/xlink">
    <!-- Generator: Sketch 48.2 (47327) - http://www.bohemiancoding.com/sketch -->
    <title>Shape</title>
    <desc>Created with Sketch.</desc>
    <defs></defs>
    <g id="FEEDBACK_base_popup" stroke="none" stroke-width="1" fill="none" fill-rule="evenodd" transform="translate(-832.000000, -16.000000)">
        <g id="NOTES_base_popup" fill="#545454" fill-rule="nonzero">
            <g id="subsection_top">
                <g id="button_close" transform="translate(832.000000, 16.000000)">
                    <path d="M0.513877875,15.4389723 C0.869151467,15.7801703 1.3259318,15.9507692 1.78271213,15.9507692 C2.23949247,15.9507692 2.6962728,15.7801703 3.05154639,15.4389723 L8,10.6865725 L12.9484536,15.4389723 C13.3037272,15.7801703 13.7605075,15.9507692 14.2172879,15.9507692 C14.6740682,15.9507692 15.1308485,15.7801703 15.4861221,15.4389723 C16.1712926,14.7809477 16.1712926,13.6842401 15.4861221,13.0262155 L10.5122918,8.27381564 L15.4861221,3.49704452 C16.1712926,2.83901992 16.1712926,1.74231227 15.4861221,1.08428768 C14.8009516,0.426263082 13.6590008,0.426263082 12.9738303,1.08428768 L8,5.8610588 L3.05154639,1.10865896 C2.36637589,0.450634364 1.22442506,0.450634364 0.53925456,1.10865896 C-0.14591594,1.76668355 -0.14591594,2.86339121 0.53925456,3.5214158 L5.48770817,8.27381564 L0.513877875,13.0505868 C-0.171292625,13.7086114 -0.171292625,14.7809477 0.513877875,15.4389723 Z" id="Shape"></path>
                </g>
            </g>
        </g>
    </g>
</svg>