<?xml version="1.0" encoding="UTF-8"?>
<svg width="8px" height="8px" viewBox="0 0 8 8" version="1.1" xmlns="http://www.w3.org/2000/svg" xmlns:xlink="http://www.w3.org/1999/xlink">
    <!-- Generator: Sketch 48.2 (47327) - http://www.bohemiancoding.com/sketch -->
    <title>Shape</title>
    <desc>Created with Sketch.</desc>
    <defs></defs>
    <g id="name-entered_2" stroke="none" stroke-width="1" fill="none" fill-rule="evenodd" transform="translate(-116.000000, -13.000000)">
        <path d="M116.256939,20.7334391 C116.434576,20.9111464 116.662966,21 116.891356,21 C117.119746,21 117.348136,20.9111464 117.525773,20.7334391 L120,18.2582309 L122.474227,20.7334391 C122.651864,20.9111464 122.880254,21 123.108644,21 C123.337034,21 123.565424,20.9111464 123.743061,20.7334391 C124.085646,20.390718 124.085646,19.8195161 123.743061,19.4767949 L121.256146,17.0015867 L123.743061,14.513685 C124.085646,14.1709639 124.085646,13.599762 123.743061,13.2570409 C123.400476,12.9143197 122.8295,12.9143197 122.486915,13.2570409 L120,15.7449425 L117.525773,13.2697342 C117.183188,12.9270131 116.612213,12.9270131 116.269627,13.2697342 C115.927042,13.6124554 115.927042,14.1836573 116.269627,14.5263784 L118.743854,17.0015867 L116.256939,19.4894883 C115.914354,19.8322094 115.914354,20.390718 116.256939,20.7334391 Z" id="Shape" fill="#9F9BA2" fill-rule="nonzero"></path>
    </g>
</svg>