<?xml version="1.0" encoding="UTF-8"?>
<svg width="12px" height="12px" viewBox="0 0 12 12" version="1.1" xmlns="http://www.w3.org/2000/svg" xmlns:xlink="http://www.w3.org/1999/xlink">
    <!-- Generator: Sketch 48.2 (47327) - http://www.bohemiancoding.com/sketch -->
    <title>Shape</title>
    <desc>Created with Sketch.</desc>
    <defs></defs>
    <g id="pending-requests-subpanel" stroke="none" stroke-width="1" fill="none" fill-rule="evenodd" transform="translate(-786.000000, -18.000000)">
        <path d="M786.385408,29.6001587 C786.651864,29.8667196 786.994449,30 787.337034,30 C787.679619,30 788.022205,29.8667196 788.28866,29.6001587 L792,25.8873463 L795.71134,29.6001587 C795.977795,29.8667196 796.320381,30 796.662966,30 C797.005551,30 797.348136,29.8667196 797.614592,29.6001587 C798.128469,29.086077 798.128469,28.2292741 797.614592,27.7151924 L793.884219,24.00238 L797.614592,20.2705276 C798.128469,19.7564459 798.128469,18.899643 797.614592,18.3855613 C797.100714,17.8714796 796.244251,17.8714796 795.730373,18.3855613 L792,22.1174137 L788.28866,18.4046013 C787.774782,17.8905196 786.918319,17.8905196 786.404441,18.4046013 C785.890563,18.9186831 785.890563,19.7754859 786.404441,20.2895676 L790.115781,24.00238 L786.385408,27.7342324 C785.871531,28.2483142 785.871531,29.086077 786.385408,29.6001587 Z" id="Shape" fill="#9F9BA2" fill-rule="nonzero"></path>
    </g>
</svg>