<?xml version="1.0" encoding="UTF-8"?>
<svg width="24px" height="24px" viewBox="0 0 24 24" version="1.1" xmlns="http://www.w3.org/2000/svg" xmlns:xlink="http://www.w3.org/1999/xlink">
    <!-- Generator: Sketch 49.3 (51167) - http://www.bohemiancoding.com/sketch -->
    <title>icon_feedback</title>
    <desc>Created with Sketch.</desc>
    <defs></defs>
    <g id="Company" stroke="none" stroke-width="1" fill="none" fill-rule="evenodd">
        <g transform="translate(-1272.000000, -1752.000000)" fill="#5F5864" id="company_1.1">
            <g transform="translate(0.000000, 1152.000000)">
                <g id="Group-2" transform="translate(241.000000, 432.000000)">
                    <g id="team-members" transform="translate(0.000000, 24.000000)">
                        <g id="gilfoyle" transform="translate(23.000000, 120.000000)">
                            <g id="icon_feedback" transform="translate(1008.000000, 24.000000)">
                                <g>
                                    <g id="Group" fill-rule="nonzero">
                                        <path d="M6.40532634,23.5214193 C5.77584989,22.9102405 5.80866875,21.9489047 6.47849625,21.3738221 L13.2082451,15.6016329 C13.5165271,15.3369279 13.9246108,15.1898423 14.3480278,15.1898423 L18.3419752,15.1898423 C19.6262147,15.1898423 20.671576,14.2356275 20.671576,13.0633626 L20.671576,5.16469373 C20.671576,3.99218326 19.6262147,3.03796847 18.3419752,3.03796847 L5.69460977,3.03796847 C4.38965668,3.03796847 3.32815495,3.99218326 3.32815495,5.16469373 L3.32815495,13.0633626 C3.32815495,14.2557628 4.33558627,15.1898423 5.62117085,15.1898423 L6.95248663,15.1898423 C7.87168365,15.1898423 8.61683311,15.8700212 8.61683311,16.7088266 C8.61683311,17.5481231 7.87168365,18.2280564 6.95248663,18.2280564 L5.62117085,18.2280564 C2.52194089,18.2280564 2.56111798e-12,15.9107828 2.56111798e-12,13.0636082 L2.56111798e-12,5.16469373 C2.56111798e-12,2.31678245 2.55475974,1.11716192e-14 5.69460977,1.11716192e-14 L18.3422442,1.11716192e-14 C21.4621877,1.11716192e-14 24,2.31678245 24,5.16469373 L24,13.0633626 C24,15.9107828 21.4619187,18.2278108 18.3422442,18.2278108 L15.0070951,18.2278108 L8.7577928,23.5882094 C8.43659841,23.8637187 8.0269007,24 7.61827903,24 C7.17495545,24 6.73270789,23.839409 6.40532634,23.5214193 Z" id="Shape"></path>
                                    </g>
                                    <ellipse id="Oval" cx="7.01123596" cy="9.89690722" rx="1.34831461" ry="1.2371134"></ellipse>
                                    <ellipse id="Oval" cx="12.1348315" cy="9.89690722" rx="1.34831461" ry="1.2371134"></ellipse>
                                    <ellipse id="Oval" cx="16.988764" cy="9.89690722" rx="1.34831461" ry="1.2371134"></ellipse>
                                </g>
                            </g>
                        </g>
                    </g>
                </g>
            </g>
        </g>
    </g>
</svg>