<?xml version="1.0" encoding="UTF-8"?>
<svg width="16px" height="24px" viewBox="0 0 16 24" version="1.1" xmlns="http://www.w3.org/2000/svg" xmlns:xlink="http://www.w3.org/1999/xlink">
    <!-- Generator: Sketch 49.2 (51160) - http://www.bohemiancoding.com/sketch -->
    <title>icon_export</title>
    <desc>Created with Sketch.</desc>
    <defs></defs>
    <g id="Page-1" stroke="none" stroke-width="1" fill="none" fill-rule="evenodd">
        <g id="icon_export" fill="#207D94" fill-rule="nonzero">
            <path d="M15.4133333,8.29565217 L11.4666667,8.29565217 C11.2,8.29565217 10.9866667,8.50434783 10.9866667,8.76521739 L10.9866667,9.70434783 C10.9866667,9.96521739 11.2,10.173913 11.4666667,10.173913 L13.9466667,10.173913 L13.9466667,21.8347826 L2.05333333,21.8347826 L2.05333333,10.2 L4.56,10.2 C4.82666667,10.2 5.04,9.99130435 5.04,9.73043478 L5.04,8.79130435 C5.04,8.53043478 4.82666667,8.32173913 4.56,8.32173913 L0.586666667,8.32173913 C0.32,8.32173913 0.106666667,8.53043478 0.106666667,8.79130435 L0.106666667,23.2956522 C0.106666667,23.5565217 0.32,23.7652174 0.586666667,23.7652174 L15.4133333,23.7652174 C15.68,23.7652174 15.8933333,23.5565217 15.8933333,23.2956522 L15.8933333,8.76521739 C15.8933333,8.50434783 15.68,8.29565217 15.4133333,8.29565217 Z" id="Shape"></path>
            <path d="M4.05333333,5.92173913 C4.24,6.10434783 4.56,6.10434783 4.74666667,5.92173913 L7.04,3.67826087 L7.04,19.4086957 C7.04,19.6695652 7.25333333,19.8782609 7.52,19.8782609 L8.48,19.8782609 C8.74666667,19.8782609 8.96,19.6695652 8.96,19.4086957 L8.96,3.73043478 L11.2533333,5.97391304 C11.44,6.15652174 11.76,6.15652174 11.9466667,5.97391304 L12.64,5.29565217 C12.8266667,5.11304348 12.8266667,4.8 12.64,4.6173913 L8.32,0.391304348 C8.13333333,0.208695652 7.81333333,0.208695652 7.62666667,0.391304348 L3.36,4.59130435 C3.17333333,4.77391304 3.17333333,5.08695652 3.36,5.26956522 L4.05333333,5.92173913 Z" id="Shape"></path>
        </g>
    </g>
</svg>