<?xml version="1.0" encoding="UTF-8"?>
<svg width="22px" height="22px" viewBox="0 0 22 22" version="1.1" xmlns="http://www.w3.org/2000/svg" xmlns:xlink="http://www.w3.org/1999/xlink">
    <!-- Generator: Sketch 48.2 (47327) - http://www.bohemiancoding.com/sketch -->
    <title>button_add</title>
    <desc>Created with Sketch.</desc>
    <defs></defs>
    <g id="dates_side_panel" stroke="none" stroke-width="1" fill="none" fill-rule="evenodd" transform="translate(-1.000000, -349.000000)">
        <g id="left-sub-panel">
            <g id="button_showmore" transform="translate(4.000000, 348.000000)">
                <g id="button_add" transform="translate(0.000000, 4.000000)">
                    <circle id="Oval" stroke="#5F5864" stroke-width="5" fill="#5F5864" cx="8" cy="8" r="8"></circle>
                    <path d="M13.1295775,6.79796821 L9.68761864,6.79796821 L9.68761864,3.58582683 C9.68761864,3.58582683 9.71929862,2.3877668 8.45221905,2.40009449 C7.18513948,2.41242218 7.1120595,3.58582683 7.1120595,3.58582683 L7.1120595,6.79796821 L3.67034066,6.79796821 C3.67034066,6.79796821 2.40578109,6.80347378 2.40002109,7.98370055 C2.39402109,9.16404701 3.67034066,9.20186788 3.67034066,9.20186788 L7.1120595,9.20186788 L7.1120595,12.4142486 C7.1120595,12.4142486 7.1179395,13.5944754 8.38249907,13.599981 C9.64717865,13.6054865 9.68761864,12.4142486 9.68761864,12.4142486 L9.68761864,9.20186788 L13.1295775,9.20186788 C13.1295775,9.20186788 14.413217,9.23119103 14.399897,8.04857053 C14.3865771,6.86606972 13.1295775,6.79796821 13.1295775,6.79796821 L13.1295775,6.79796821 Z" id="Shape" fill="#FCFCFC"></path>
                </g>
            </g>
        </g>
    </g>
</svg>