<?xml version="1.0" encoding="UTF-8"?>
<svg width="18px" height="18px" viewBox="0 0 18 18" version="1.1" xmlns="http://www.w3.org/2000/svg" xmlns:xlink="http://www.w3.org/1999/xlink">
    <!-- Generator: Sketch 49.1 (51147) - http://www.bohemiancoding.com/sketch -->
    <title>Slack_Mark_Monochrome_White</title>
    <desc>Created with Sketch.</desc>
    <defs></defs>
    <g id="Admin" stroke="none" stroke-width="1" fill="none" fill-rule="evenodd">
        <g transform="translate(-1208.000000, -39807.000000)" fill="#FFFFFF" fill-rule="nonzero" id="Group-7">
            <g transform="translate(0.000000, 25632.000000)">
                <g id="SETTINGS">
                    <g id="admin_company_integrations" transform="translate(0.000000, 13824.000000)">
                        <g id="email" transform="translate(240.000000, 312.000000)">
                            <g id="add-to-slack" transform="translate(939.000000, 33.000000)">
                                <g id="Slack_Mark_Monochrome_White" transform="translate(29.000000, 6.000000)">
                                    <rect id="Rectangle-path" transform="translate(9.042606, 8.970811) rotate(-18.518296) translate(-9.042606, -8.970811) " x="7.7854924" y="7.75655425" width="2.51422663" height="2.42851436"></rect>
                                    <g id="Group">
                                        <rect id="Rectangle-path" transform="translate(9.042606, 8.970811) rotate(-18.518296) translate(-9.042606, -8.970811) " x="7.7854924" y="7.75655425" width="2.51422663" height="2.42851436"></rect>
                                        <path d="M17.2285714,6.5 C15.3857143,0.357142857 12.7285714,-1.07142857 6.58571429,0.771428571 C0.442857143,2.61428571 -0.985714286,5.27142857 0.857142857,11.4142857 C2.7,17.5571429 5.35714286,18.9857143 11.5,17.1428571 C17.6428571,15.3 19.0714286,12.6428571 17.2285714,6.5 Z M14.1285714,10.4857143 L12.9714286,10.8714286 L13.3714286,12.0714286 C13.5285714,12.5571429 13.2714286,13.0857143 12.7857143,13.2428571 C12.6857143,13.2714286 12.5714286,13.3 12.4714286,13.2857143 C12.1,13.2714286 11.7428571,13.0285714 11.6142857,12.6571429 L11.2142857,11.4571429 L8.82857143,12.2571429 L9.22857143,13.4571429 C9.38571429,13.9428571 9.12857143,14.4714286 8.64285714,14.6285714 C8.54285714,14.6571429 8.42857143,14.6857143 8.32857143,14.6714286 C7.95714286,14.6571429 7.6,14.4142857 7.47142857,14.0428571 L7.07142857,12.8428571 L5.91428571,13.2285714 C5.81428571,13.2571429 5.7,13.2857143 5.6,13.2714286 C5.22857143,13.2571429 4.87142857,13.0142857 4.74285714,12.6428571 C4.58571429,12.1571429 4.84285714,11.6285714 5.32857143,11.4714286 L6.48571429,11.0857143 L5.71428571,8.78571429 L4.55714286,9.17142857 C4.45714286,9.2 4.34285714,9.22857143 4.24285714,9.21428571 C3.87142857,9.2 3.51428571,8.95714286 3.38571429,8.58571429 C3.22857143,8.1 3.48571429,7.57142857 3.97142857,7.41428571 L5.12857143,7.02857143 L4.72857143,5.82857143 C4.57142857,5.34285714 4.82857143,4.81428571 5.31428571,4.65714286 C5.8,4.5 6.32857143,4.75714286 6.48571429,5.24285714 L6.88571429,6.44285714 L9.27142857,5.64285714 L8.87142857,4.44285714 C8.71428571,3.95714286 8.97142857,3.42857143 9.45714286,3.27142857 C9.94285714,3.11428571 10.4714286,3.37142857 10.6285714,3.85714286 L11.0285714,5.05714286 L12.1857143,4.67142857 C12.6714286,4.51428571 13.2,4.77142857 13.3571429,5.25714286 C13.5142857,5.74285714 13.2571429,6.27142857 12.7714286,6.42857143 L11.6142857,6.81428571 L12.3857143,9.11428571 L13.5428571,8.72857143 C14.0285714,8.57142857 14.5571429,8.82857143 14.7142857,9.31428571 C14.8714286,9.8 14.6142857,10.3285714 14.1285714,10.4857143 Z" id="Shape"></path>
                                    </g>
                                </g>
                            </g>
                        </g>
                    </g>
                </g>
            </g>
        </g>
    </g>
</svg>