<?xml version="1.0" encoding="UTF-8"?>
<svg width="12px" height="12px" viewBox="0 0 12 12" version="1.1" xmlns="http://www.w3.org/2000/svg" xmlns:xlink="http://www.w3.org/1999/xlink">
    <!-- Generator: Sketch 49.1 (51147) - http://www.bohemiancoding.com/sketch -->
    <title>Shape</title>
    <desc>Created with Sketch.</desc>
    <defs></defs>
    <g id="Admin" stroke="none" stroke-width="1" fill="none" fill-rule="evenodd">
        <g transform="translate(-1314.000000, -36354.000000)" fill="#9F9BA2" fill-rule="nonzero" id="Group-7">
            <g transform="translate(0.000000, 25632.000000)">
                <g id="SETTINGS">
                    <g id="admin_company_values" transform="translate(0.000000, 10368.000000)">
                        <g id="value1" transform="translate(240.000000, 336.000000)">
                            <path d="M1074.38541,29.6001587 C1074.65186,29.8667196 1074.99445,30 1075.33703,30 C1075.67962,30 1076.0222,29.8667196 1076.28866,29.6001587 L1080,25.8873463 L1083.71134,29.6001587 C1083.9778,29.8667196 1084.32038,30 1084.66297,30 C1085.00555,30 1085.34814,29.8667196 1085.61459,29.6001587 C1086.12847,29.086077 1086.12847,28.2292741 1085.61459,27.7151924 L1081.88422,24.00238 L1085.61459,20.2705276 C1086.12847,19.7564459 1086.12847,18.899643 1085.61459,18.3855613 C1085.10071,17.8714796 1084.24425,17.8714796 1083.73037,18.3855613 L1080,22.1174137 L1076.28866,18.4046013 C1075.77478,17.8905196 1074.91832,17.8905196 1074.40444,18.4046013 C1073.89056,18.9186831 1073.89056,19.7754859 1074.40444,20.2895676 L1078.11578,24.00238 L1074.38541,27.7342324 C1073.87153,28.2483142 1073.87153,29.086077 1074.38541,29.6001587 Z" id="Shape"></path>
                        </g>
                    </g>
                </g>
            </g>
        </g>
    </g>
</svg>